<?xml version="1.0" encoding="UTF-8"?>
<svg version="1.1" xmlns="http://www.w3.org/2000/svg" width="322" height="322">
<path d="M0 0 C5.38032248 3.07602275 8.85136739 7.41606963 10.6875 13.375 C10.62783741 15.6692976 10.49770953 17.96241207 10.3125 20.25 C10.16000475 25.20269055 10.16000475 25.20269055 12.14453125 29.5625 C14.23799571 31.34628037 16.39242206 32.86002245 18.6875 34.375 C27.37012077 41.03747326 27.37012077 41.03747326 28.5625 46.0625 C27.46958294 50.19997172 25.76882701 51.42967639 22.6875 54.375 C20.59845963 56.55878066 18.55031169 58.77988499 16.5 61 C15.96697266 61.57234375 15.43394531 62.1446875 14.88476562 62.734375 C12.60691297 65.19846718 10.55270669 67.57718996 8.6875 70.375 C8.0275 70.375 7.3675 70.375 6.6875 70.375 C6.42324219 70.96796875 6.15898437 71.5609375 5.88671875 72.171875 C4.64379575 74.45529054 3.38348354 75.84926723 1.5 77.625 C-0.94848256 80.00323921 -3.27321053 82.41299459 -5.5 85 C-8.59626839 88.58697164 -11.78163801 92.0852485 -15 95.5625 C-15.50958252 96.11325195 -16.01916504 96.66400391 -16.54418945 97.23144531 C-18.67159066 99.52865465 -20.80099726 101.8239966 -22.93115234 104.11865234 C-23.72900146 104.97837646 -23.72900146 104.97837646 -24.54296875 105.85546875 C-25.06713379 106.41999756 -25.59129883 106.98452637 -26.13134766 107.56616211 C-27.64923445 109.20859468 -29.15488125 110.86164035 -30.66015625 112.515625 C-32.20176809 114.17756884 -33.77822456 115.81070549 -35.43359375 117.359375 C-37.12645265 119.00140904 -38.31555025 120.23668254 -39.3125 122.375 C-39.3385624 125.16802029 -38.98723124 127.7736891 -38.578125 130.53515625 C-38.13553894 135.26692197 -39.09180061 139.18983576 -41.3125 143.375 C-45.10165482 147.71005 -49.75219428 151.85427501 -55.609375 152.7109375 C-62.68058709 152.82353642 -67.9018268 151.64449065 -73.10546875 146.65625 C-78.05057553 141.11209228 -78.6698145 136.75291359 -78.58984375 129.38671875 C-78.07413726 123.78658203 -75.56336485 120.31920853 -71.4375 116.5625 C-67.61123357 113.8841135 -64.66615679 112.07702101 -59.875 112.68359375 C-56.73203315 113.04521352 -54.40793104 113.0940988 -51.3125 112.375 C-47.56417634 109.340391 -44.67627837 105.82641612 -41.68310547 102.06396484 C-39.52902411 99.40954111 -37.20399566 96.94025143 -34.875 94.4375 C-33.97062341 93.45119039 -33.06698688 92.46420172 -32.1640625 91.4765625 C-30.12578601 89.25494139 -28.07715333 87.04329192 -26.0234375 84.8359375 C-25.47743896 84.24804443 -24.93144043 83.66015137 -24.36889648 83.05444336 C-23.31289814 81.91818213 -22.25519568 80.78350157 -21.19555664 79.65063477 C-19.01595383 77.30362436 -17.09406989 75.04735483 -15.3125 72.375 C-14.6525 72.375 -13.9925 72.375 -13.3125 72.375 C-13.04824219 71.78203125 -12.78398437 71.1890625 -12.51171875 70.578125 C-11.26879575 68.29470946 -10.00848354 66.90073277 -8.125 65.125 C-3.37918688 60.51760643 0.96186421 55.61366265 5 50.375 C5.556875 49.715 6.11375 49.055 6.6875 48.375 C7.3475 48.375 8.0075 48.375 8.6875 48.375 C6.37016839 43.74033678 3.37189634 39.72995061 -1.3125 37.375 C-4.16360983 37.3197624 -6.78695024 37.69295913 -9.60546875 38.109375 C-13.80101849 38.52105953 -16.80136327 37.67872051 -20.3125 35.375 C-25.73214555 30.41591721 -29.02740461 25.91018284 -29.625 18.5 C-29.41539251 11.53055105 -26.16342167 6.22592167 -21.3125 1.375 C-14.6231048 -2.55993835 -7.12076615 -3.21106247 0 0 Z " fill="#FFDB29" transform="translate(244.3125,168.625)"/>
<path d="M0 0 C5.38032248 3.07602275 8.85136739 7.41606963 10.6875 13.375 C10.62783741 15.6692976 10.49770953 17.96241207 10.3125 20.25 C10.16000475 25.20269055 10.16000475 25.20269055 12.14453125 29.5625 C14.23799571 31.34628037 16.39242206 32.86002245 18.6875 34.375 C27.37012077 41.03747326 27.37012077 41.03747326 28.5625 46.0625 C27.46958294 50.19997172 25.76882701 51.42967639 22.6875 54.375 C20.59845963 56.55878066 18.55031169 58.77988499 16.5 61 C15.96697266 61.57234375 15.43394531 62.1446875 14.88476562 62.734375 C12.60691297 65.19846718 10.55270669 67.57718996 8.6875 70.375 C8.0275 70.375 7.3675 70.375 6.6875 70.375 C6.42324219 70.96796875 6.15898437 71.5609375 5.88671875 72.171875 C4.64379575 74.45529054 3.38348354 75.84926723 1.5 77.625 C-0.94848256 80.00323921 -3.27321053 82.41299459 -5.5 85 C-8.59626839 88.58697164 -11.78163801 92.0852485 -15 95.5625 C-15.50958252 96.11325195 -16.01916504 96.66400391 -16.54418945 97.23144531 C-18.67159066 99.52865465 -20.80099726 101.8239966 -22.93115234 104.11865234 C-23.72900146 104.97837646 -23.72900146 104.97837646 -24.54296875 105.85546875 C-25.06713379 106.41999756 -25.59129883 106.98452637 -26.13134766 107.56616211 C-27.64923445 109.20859468 -29.15488125 110.86164035 -30.66015625 112.515625 C-32.20176809 114.17756884 -33.77822456 115.81070549 -35.43359375 117.359375 C-37.12645265 119.00140904 -38.31555025 120.23668254 -39.3125 122.375 C-39.3385624 125.16802029 -38.98723124 127.7736891 -38.578125 130.53515625 C-38.13553894 135.26692197 -39.09180061 139.18983576 -41.3125 143.375 C-45.10165482 147.71005 -49.75219428 151.85427501 -55.609375 152.7109375 C-62.68058709 152.82353642 -67.9018268 151.64449065 -73.10546875 146.65625 C-78.05057553 141.11209228 -78.6698145 136.75291359 -78.58984375 129.38671875 C-78.07413726 123.78658203 -75.56336485 120.31920853 -71.4375 116.5625 C-67.61123357 113.8841135 -64.66615679 112.07702101 -59.875 112.68359375 C-56.73203315 113.04521352 -54.40793104 113.0940988 -51.3125 112.375 C-47.56417634 109.340391 -44.67627837 105.82641612 -41.68310547 102.06396484 C-39.52902411 99.40954111 -37.20399566 96.94025143 -34.875 94.4375 C-33.97062341 93.45119039 -33.06698688 92.46420172 -32.1640625 91.4765625 C-30.12578601 89.25494139 -28.07715333 87.04329192 -26.0234375 84.8359375 C-25.47743896 84.24804443 -24.93144043 83.66015137 -24.36889648 83.05444336 C-23.31289814 81.91818213 -22.25519568 80.78350157 -21.19555664 79.65063477 C-19.01595383 77.30362436 -17.09406989 75.04735483 -15.3125 72.375 C-14.6525 72.375 -13.9925 72.375 -13.3125 72.375 C-13.04824219 71.78203125 -12.78398437 71.1890625 -12.51171875 70.578125 C-11.26879575 68.29470946 -10.00848354 66.90073277 -8.125 65.125 C-3.37918688 60.51760643 0.96186421 55.61366265 5 50.375 C5.556875 49.715 6.11375 49.055 6.6875 48.375 C7.3475 48.375 8.0075 48.375 8.6875 48.375 C6.37016839 43.74033678 3.37189634 39.72995061 -1.3125 37.375 C-4.16360983 37.3197624 -6.78695024 37.69295913 -9.60546875 38.109375 C-13.80101849 38.52105953 -16.80136327 37.67872051 -20.3125 35.375 C-25.73214555 30.41591721 -29.02740461 25.91018284 -29.625 18.5 C-29.41539251 11.53055105 -26.16342167 6.22592167 -21.3125 1.375 C-14.6231048 -2.55993835 -7.12076615 -3.21106247 0 0 Z " fill="#FFDB29" transform="translate(146.3125,167.625)"/>
<path d="M0 0 C5.09242128 2.28179646 8.6839881 5.72855633 11.78125 10.34765625 C13.56369185 15.69498181 13.80481669 22.1014876 12.09765625 27.515625 C9.34703505 32.68587979 5.30230664 36.11644254 0.09375 38.66015625 C-3.21875 39.34765625 -3.21875 39.34765625 -5.65625 39.0390625 C-8.79921685 38.67744273 -11.12331896 38.62855745 -14.21875 39.34765625 C-17.96707366 42.38226525 -20.85497163 45.89624013 -23.84814453 49.65869141 C-26.00222589 52.31311514 -28.32725434 54.78240482 -30.65625 57.28515625 C-31.56062659 58.27146586 -32.46426312 59.25845453 -33.3671875 60.24609375 C-35.40546399 62.46771486 -37.45409667 64.67936433 -39.5078125 66.88671875 C-40.05381104 67.47461182 -40.59980957 68.06250488 -41.16235352 68.66821289 C-42.21835186 69.80447412 -43.27605432 70.93915468 -44.33569336 72.07202148 C-46.51529617 74.41903189 -48.43718011 76.67530142 -50.21875 79.34765625 C-50.87875 79.34765625 -51.53875 79.34765625 -52.21875 79.34765625 C-52.48300781 79.940625 -52.74726562 80.53359375 -53.01953125 81.14453125 C-54.26245425 83.42794679 -55.52276646 84.82192348 -57.40625 86.59765625 C-62.15206312 91.20504982 -66.49311421 96.1089936 -70.53125 101.34765625 C-71.088125 102.00765625 -71.645 102.66765625 -72.21875 103.34765625 C-72.87875 103.34765625 -73.53875 103.34765625 -74.21875 103.34765625 C-71.90141839 107.98231947 -68.90314634 111.99270564 -64.21875 114.34765625 C-61.36764017 114.40289385 -58.74429976 114.02969712 -55.92578125 113.61328125 C-51.73023151 113.20159672 -48.72988673 114.04393574 -45.21875 116.34765625 C-39.79910445 121.30673904 -36.50384539 125.81247341 -35.90625 133.22265625 C-36.11585749 140.1921052 -39.36782833 145.49673458 -44.21875 150.34765625 C-49.73619224 153.59321051 -54.9640331 154.22017945 -61.21875 153.34765625 C-67.14916486 151.51893947 -70.72403151 148.38416231 -74.21875 143.34765625 C-76.35995976 139.15927634 -76.21935002 136.11182411 -75.84375 131.47265625 C-75.69125475 126.5199657 -75.69125475 126.5199657 -77.67578125 122.16015625 C-79.76924571 120.37637588 -81.92367206 118.8626338 -84.21875 117.34765625 C-92.90137077 110.68518299 -92.90137077 110.68518299 -94.09375 105.66015625 C-93.00083294 101.52268453 -91.30007701 100.29297986 -88.21875 97.34765625 C-86.12970963 95.16387559 -84.08156169 92.94277126 -82.03125 90.72265625 C-81.49822266 90.1503125 -80.96519531 89.57796875 -80.41601562 88.98828125 C-78.13816297 86.52418907 -76.08395669 84.14546629 -74.21875 81.34765625 C-73.55875 81.34765625 -72.89875 81.34765625 -72.21875 81.34765625 C-71.95449219 80.7546875 -71.69023438 80.16171875 -71.41796875 79.55078125 C-70.17504575 77.26736571 -68.91473354 75.87338902 -67.03125 74.09765625 C-64.58276744 71.71941704 -62.25803947 69.30966166 -60.03125 66.72265625 C-56.93498161 63.13568461 -53.74961199 59.63740775 -50.53125 56.16015625 C-50.02166748 55.6094043 -49.51208496 55.05865234 -48.98706055 54.49121094 C-46.85965934 52.1940016 -44.73025274 49.89865965 -42.60009766 47.60400391 C-41.80224854 46.74427979 -41.80224854 46.74427979 -40.98828125 45.8671875 C-40.46411621 45.30265869 -39.93995117 44.73812988 -39.39990234 44.15649414 C-37.88201555 42.51406157 -36.37636875 40.8610159 -34.87109375 39.20703125 C-33.32948191 37.54508741 -31.75302544 35.91195076 -30.09765625 34.36328125 C-28.40479735 32.72124721 -27.21569975 31.48597371 -26.21875 29.34765625 C-26.1926876 26.55463596 -26.54401876 23.94896715 -26.953125 21.1875 C-27.39571106 16.45573428 -26.43944939 12.53282049 -24.21875 8.34765625 C-17.59441892 0.76897239 -10.02725526 -2.94815428 0 0 Z " fill="#FFDB29" transform="translate(139.21875,3.65234375)"/>
<path d="M0 0 C5.09242128 2.28179646 8.6839881 5.72855633 11.78125 10.34765625 C13.56369185 15.69498181 13.80481669 22.1014876 12.09765625 27.515625 C9.34703505 32.68587979 5.30230664 36.11644254 0.09375 38.66015625 C-3.21875 39.34765625 -3.21875 39.34765625 -5.65625 39.0390625 C-8.79921685 38.67744273 -11.12331896 38.62855745 -14.21875 39.34765625 C-17.96707366 42.38226525 -20.85497163 45.89624013 -23.84814453 49.65869141 C-26.00222589 52.31311514 -28.32725434 54.78240482 -30.65625 57.28515625 C-31.56062659 58.27146586 -32.46426312 59.25845453 -33.3671875 60.24609375 C-35.40546399 62.46771486 -37.45409667 64.67936433 -39.5078125 66.88671875 C-40.05381104 67.47461182 -40.59980957 68.06250488 -41.16235352 68.66821289 C-42.21835186 69.80447412 -43.27605432 70.93915468 -44.33569336 72.07202148 C-46.51529617 74.41903189 -48.43718011 76.67530142 -50.21875 79.34765625 C-50.87875 79.34765625 -51.53875 79.34765625 -52.21875 79.34765625 C-52.48300781 79.940625 -52.74726563 80.53359375 -53.01953125 81.14453125 C-54.26245425 83.42794679 -55.52276646 84.82192348 -57.40625 86.59765625 C-62.15206312 91.20504982 -66.49311421 96.1089936 -70.53125 101.34765625 C-71.088125 102.00765625 -71.645 102.66765625 -72.21875 103.34765625 C-72.87875 103.34765625 -73.53875 103.34765625 -74.21875 103.34765625 C-71.90141839 107.98231947 -68.90314634 111.99270564 -64.21875 114.34765625 C-61.36764017 114.40289385 -58.74429976 114.02969712 -55.92578125 113.61328125 C-51.73023151 113.20159672 -48.72988673 114.04393574 -45.21875 116.34765625 C-39.79910445 121.30673904 -36.50384539 125.81247341 -35.90625 133.22265625 C-36.11585749 140.1921052 -39.36782833 145.49673458 -44.21875 150.34765625 C-49.73619224 153.59321051 -54.9640331 154.22017945 -61.21875 153.34765625 C-67.14916486 151.51893947 -70.72403151 148.38416231 -74.21875 143.34765625 C-76.35995976 139.15927634 -76.21935002 136.11182411 -75.84375 131.47265625 C-75.69125475 126.5199657 -75.69125475 126.5199657 -77.67578125 122.16015625 C-79.76924571 120.37637588 -81.92367206 118.8626338 -84.21875 117.34765625 C-92.90137077 110.68518299 -92.90137077 110.68518299 -94.09375 105.66015625 C-93.00083294 101.52268453 -91.30007701 100.29297986 -88.21875 97.34765625 C-86.12970963 95.16387559 -84.08156169 92.94277126 -82.03125 90.72265625 C-81.49822266 90.1503125 -80.96519531 89.57796875 -80.41601562 88.98828125 C-78.13816297 86.52418907 -76.08395669 84.14546629 -74.21875 81.34765625 C-73.55875 81.34765625 -72.89875 81.34765625 -72.21875 81.34765625 C-71.95449219 80.7546875 -71.69023437 80.16171875 -71.41796875 79.55078125 C-70.17504575 77.26736571 -68.91473354 75.87338902 -67.03125 74.09765625 C-64.58276744 71.71941704 -62.25803947 69.30966166 -60.03125 66.72265625 C-56.93498161 63.13568461 -53.74961199 59.63740775 -50.53125 56.16015625 C-50.02166748 55.6094043 -49.51208496 55.05865234 -48.98706055 54.49121094 C-46.85965934 52.1940016 -44.73025274 49.89865965 -42.60009766 47.60400391 C-41.80224854 46.74427979 -41.80224854 46.74427979 -40.98828125 45.8671875 C-40.46411621 45.30265869 -39.93995117 44.73812988 -39.39990234 44.15649414 C-37.88201555 42.51406157 -36.37636875 40.8610159 -34.87109375 39.20703125 C-33.32948191 37.54508741 -31.75302544 35.91195076 -30.09765625 34.36328125 C-28.40479735 32.72124721 -27.21569975 31.48597371 -26.21875 29.34765625 C-26.1926876 26.55463596 -26.54401876 23.94896715 -26.953125 21.1875 C-27.39571106 16.45573428 -26.43944939 12.53282049 -24.21875 8.34765625 C-17.59441892 0.76897239 -10.02725526 -2.94815428 0 0 Z " fill="#FFDB29" transform="translate(241.21875,2.65234375)"/>
</svg>
